<svg xmlns="http://www.w3.org/2000/svg" xmlns:xlink="http://www.w3.org/1999/xlink" width="512" zoomAndPan="magnify" viewBox="0 0 384 383.999986" height="512" preserveAspectRatio="xMidYMid meet" version="1.0"><defs><clipPath id="d19bd185cd"><path d="M 0 21.578125 L 384 21.578125 L 384 370.667969 L 0 370.667969 Z M 0 21.578125 " clip-rule="nonzero"/></clipPath><clipPath id="93cb2a6095"><path d="M 378.890625 95.34375 C 366.742188 54.09375 327.53125 21.578125 281.167969 21.578125 C 242.238281 21.578125 208.417969 43.542969 191.320312 75.800781 C 174.222656 43.542969 140.40625 21.578125 101.480469 21.578125 C 52.980469 21.578125 10.558594 54.09375 2.230469 101.292969 C -18.890625 220.972656 114.972656 314.648438 191.621094 370.667969 C 262.488281 318.875 413.621094 213.273438 378.890625 95.34375 Z M 378.890625 95.34375 " clip-rule="nonzero"/></clipPath><clipPath id="38168dedf1"><path d="M 0 0.578125 L 384 0.578125 L 384 349.667969 L 0 349.667969 Z M 0 0.578125 " clip-rule="nonzero"/></clipPath><clipPath id="9207cc13bc"><path d="M 378.890625 74.34375 C 366.742188 33.09375 327.53125 0.578125 281.167969 0.578125 C 242.238281 0.578125 208.417969 22.542969 191.320312 54.800781 C 174.222656 22.542969 140.40625 0.578125 101.480469 0.578125 C 52.980469 0.578125 10.558594 33.09375 2.230469 80.292969 C -18.890625 199.972656 114.972656 293.648438 191.621094 349.667969 C 262.488281 297.875 413.621094 192.273438 378.890625 74.34375 Z M 378.890625 74.34375 " clip-rule="nonzero"/></clipPath><clipPath id="f14354ae08"><rect x="0" width="384" y="0" height="350"/></clipPath></defs><g clip-path="url(#d19bd185cd)"><g clip-path="url(#93cb2a6095)"><g transform="matrix(1, 0, 0, 1, 0, 21)"><g clip-path="url(#f14354ae08)"><g clip-path="url(#38168dedf1)"><g clip-path="url(#9207cc13bc)"><path fill="#ffffff" d="M 0 0.578125 L 384.546875 0.578125 L 384.546875 349.667969 L 0 349.667969 Z M 0 0.578125 " fill-opacity="1" fill-rule="nonzero"/></g></g></g></g></g></g></svg>