<svg xmlns="http://www.w3.org/2000/svg" xmlns:xlink="http://www.w3.org/1999/xlink" width="500" zoomAndPan="magnify" viewBox="0 0 375 374.999991" height="500" preserveAspectRatio="xMidYMid meet" version="1.0"><defs><clipPath id="ded781636e"><path d="M 0 27.613281 L 317 27.613281 L 317 345 L 0 345 Z M 0 27.613281 " clip-rule="nonzero"/></clipPath><clipPath id="1fed5439ad"><path d="M 331 303 L 375 303 L 375 347.113281 L 331 347.113281 Z M 331 303 " clip-rule="nonzero"/></clipPath></defs><path fill="#0a66c2" d="M 356.472656 326.90625 C 359.714844 326.9375 362.375 324.335938 362.40625 321.09375 C 362.40625 320.960938 362.40625 320.824219 362.40625 320.691406 C 362.40625 316.285156 359.746094 314.175781 354.292969 314.175781 L 345.492188 314.175781 L 345.492188 337.230469 L 348.808594 337.230469 L 348.808594 327.175781 L 352.875 327.175781 L 352.964844 327.292969 L 359.28125 337.214844 L 362.824219 337.214844 L 356.027344 326.9375 L 356.472656 326.875 Z M 352.648438 324.589844 L 348.808594 324.589844 L 348.808594 316.792969 L 353.679688 316.792969 C 356.191406 316.792969 359.058594 317.210938 359.058594 320.496094 C 359.058594 324.277344 356.160156 324.589844 352.632812 324.589844 " fill-opacity="1" fill-rule="nonzero"/><g clip-path="url(#ded781636e)"><path fill="#0a66c2" d="M 270.074219 298.011719 L 223.101562 298.011719 L 223.101562 224.460938 C 223.101562 206.921875 222.789062 184.347656 198.675781 184.347656 C 174.5625 184.347656 170.46875 203.453125 170.46875 223.191406 L 170.46875 298.011719 L 123.496094 298.011719 L 123.496094 146.757812 L 168.585938 146.757812 L 168.585938 167.433594 L 169.214844 167.433594 C 178.402344 151.714844 195.507812 142.320312 213.707031 143.007812 C 261.304688 143.007812 270.089844 174.320312 270.089844 215.046875 L 270.089844 298.027344 Z M 70.519531 126.078125 C 55.457031 126.078125 43.265625 113.886719 43.253906 98.828125 C 43.238281 83.769531 55.441406 71.578125 70.503906 71.5625 C 85.5625 71.5625 97.753906 83.753906 97.769531 98.8125 C 97.785156 113.871094 85.578125 126.0625 70.519531 126.078125 M 94.003906 298.011719 L 46.988281 298.011719 L 46.988281 146.757812 L 94.003906 146.757812 Z M 293.484375 27.953125 L 23.394531 27.953125 C 10.621094 27.816406 0.148438 38.035156 0 50.808594 L 0 322.035156 C 0.148438 334.808594 10.621094 345.042969 23.394531 344.910156 L 293.5 344.910156 C 306.304688 345.074219 316.808594 334.839844 316.988281 322.035156 L 316.988281 50.78125 C 316.792969 37.992188 306.289062 27.773438 293.484375 27.9375 " fill-opacity="1" fill-rule="nonzero"/></g><g clip-path="url(#1fed5439ad)"><path fill="#0a66c2" d="M 353.054688 303.914062 C 341.117188 304.03125 331.539062 313.804688 331.644531 325.742188 C 331.761719 337.675781 341.535156 347.253906 353.472656 347.148438 C 365.410156 347.03125 374.984375 337.257812 374.878906 325.320312 C 374.761719 313.550781 365.242188 304.03125 353.472656 303.914062 L 353.054688 303.914062 M 353.054688 344.667969 C 342.578125 344.847656 333.960938 336.496094 333.78125 326.039062 C 333.601562 315.582031 341.953125 306.945312 352.410156 306.765625 C 362.882812 306.585938 371.503906 314.9375 371.683594 325.398438 L 371.683594 325.710938 C 371.90625 335.945312 363.78125 344.429688 353.546875 344.65625 L 353.054688 344.65625 " fill-opacity="1" fill-rule="nonzero"/></g></svg>