<svg xmlns="http://www.w3.org/2000/svg" xmlns:xlink="http://www.w3.org/1999/xlink" width="1024" zoomAndPan="magnify" viewBox="0 0 768 767.999994" height="1024" preserveAspectRatio="xMidYMid meet" version="1.0"><path fill="#ffffff" d="M 184.5 72 L 583.5 72 L 606 76.5 L 630 88.5 L 645 100.5 L 658.5 118.5 L 667.5 138 L 672 160.5 L 672 607.5 L 669 625.5 L 661.5 645 L 651 660 L 642 670.5 L 622.5 684 L 604.5 691.5 L 583.5 696 L 565.5 696 L 543 691.5 L 522 681 L 507 667.5 L 496.5 655.5 L 484.5 637.5 L 459 600 L 430.5 558 L 408 525 L 399 517.5 L 390 514.5 L 378 514.5 L 367.5 519 L 358.5 526.5 L 346.5 544.5 L 322.5 579 L 306 603 L 282 637.5 L 264 663 L 252 675 L 235.5 685.5 L 216 693 L 208.5 694.5 L 177 694.5 L 159 690 L 138 679.5 L 121.5 666 L 108 648 L 100.5 630 L 97.5 619.5 L 96 607.5 L 96 160.5 L 100.5 138 L 112.5 114 L 124.5 99 L 142.5 85.5 L 162 76.5 Z M 184.5 72 " fill-opacity="1" fill-rule="nonzero"/></svg>